<svg xmlns="http://www.w3.org/2000/svg" viewBox="0 0 96 96"><rect width="96" height="96" rx="16" fill="#fff3f7"/><path d="M16 34L64 22L81 34L33 47Z" fill="#d7b583" stroke="#9c7448" stroke-width="2"/><path d="M16 34L33 47L81 34V42L33 55L16 42Z" fill="#b18a59" stroke="#9c7448" stroke-width="2"/><path d="M19 47L65 35L82 47L36 60Z" fill="#d7b583" stroke="#9c7448" stroke-width="2"/><path d="M19 47L36 60L82 47V55L36 68L19 55Z" fill="#b18a59" stroke="#9c7448" stroke-width="2"/><path d="M23 61L67 49L83 61L39 74Z" fill="#d7b583" stroke="#9c7448" stroke-width="2"/><path d="M23 61L39 74L83 61V68L39 81L23 68Z" fill="#b18a59" stroke="#9c7448" stroke-width="2"/><text x="30" y="16" fill="#805733" font-family="sans-serif" font-size="10">MDF 3 mm</text></svg>